<svg xmlns="http://www.w3.org/2000/svg" viewBox="0 0 600 600" width="600" height="600"><defs><radialGradient id="bg" cx="20%" cy="50%" r="78%"><stop offset="0%" stop-color="#1C2550"/><stop offset="100%" stop-color="#0B1026"/></radialGradient></defs><rect width="600" height="600" fill="url(#bg)"/><circle cx="56.0" cy="299.4" r="2.6" fill="#D9A441" stroke="#D9A441" stroke-width="0" opacity="0.75"/><circle cx="58.9" cy="296.7" r="2.6" fill="#D9A441" stroke="#D9A441" stroke-width="0" opacity="0.75"/><circle cx="61.2" cy="298.7" r="2.6" fill="#D9A441" stroke="#D9A441" stroke-width="0" opacity="0.75"/><circle cx="63.3" cy="299.9" r="2.6" fill="#D9A441" stroke="#D9A441" stroke-width="0" opacity="0.74"/><circle cx="65.4" cy="302.9" r="2.6" fill="#D9A441" stroke="#D9A441" stroke-width="0" opacity="0.74"/><circle cx="67.3" cy="298.9" r="2.6" fill="#D9A441" stroke="#D9A441" stroke-width="0" opacity="0.74"/><circle cx="69.2" cy="300.7" r="2.6" fill="#D9A441" stroke="#D9A441" stroke-width="0" opacity="0.74"/><circle cx="71.1" cy="297.3" r="2.6" fill="#D9A441" stroke="#D9A441" stroke-width="0" opacity="0.74"/><circle cx="72.9" cy="300.1" r="2.6" fill="#D9A441" stroke="#D9A441" stroke-width="0" opacity="0.74"/><circle cx="74.6" cy="299.7" r="2.6" fill="#D9A441" stroke="#D9A441" stroke-width="0" opacity="0.73"/><circle cx="76.4" cy="299.0" r="2.6" fill="#D9A441" stroke="#D9A441" stroke-width="0" opacity="0.73"/><circle cx="78.1" cy="298.7" r="2.6" fill="#D9A441" stroke="#D9A441" stroke-width="0" opacity="0.73"/><circle cx="79.8" cy="299.0" r="2.6" fill="#D9A441" stroke="#D9A441" stroke-width="0" opacity="0.73"/><circle cx="81.5" cy="298.2" r="2.6" fill="#D9A441" stroke="#D9A441" stroke-width="0" opacity="0.73"/><circle cx="83.1" cy="305.6" r="2.5" fill="#D9A441" stroke="#D9A441" stroke-width="0" opacity="0.73"/><circle cx="84.8" cy="295.8" r="2.5" fill="#D9A441" stroke="#D9A441" stroke-width="0" opacity="0.73"/><circle cx="86.4" cy="298.8" r="2.5" fill="#D9A441" stroke="#D9A441" stroke-width="0" opacity="0.72"/><circle cx="88.0" cy="300.7" r="2.5" fill="#D9A441" stroke="#D9A441" stroke-width="0" opacity="0.72"/><circle cx="89.6" cy="304.3" r="2.5" fill="#D9A441" stroke="#D9A441" stroke-width="0" opacity="0.72"/><circle cx="91.2" cy="302.4" r="2.5" fill="#D9A441" stroke="#D9A441" stroke-width="0" opacity="0.72"/><circle cx="92.8" cy="302.9" r="2.5" fill="#D9A441" stroke="#D9A441" stroke-width="0" opacity="0.72"/><circle cx="94.3" cy="305.6" r="2.5" fill="#D9A441" stroke="#D9A441" stroke-width="0" opacity="0.72"/><circle cx="95.9" cy="298.7" r="2.5" fill="#D9A441" stroke="#D9A441" stroke-width="0" opacity="0.72"/><circle cx="97.4" cy="298.8" r="2.5" fill="#D9A441" stroke="#D9A441" stroke-width="0" opacity="0.72"/><circle cx="98.9" cy="304.6" r="2.5" fill="#D9A441" stroke="#D9A441" stroke-width="0" opacity="0.71"/><circle cx="100.4" cy="301.1" r="2.5" fill="#D9A441" stroke="#D9A441" stroke-width="0" opacity="0.71"/><circle cx="101.9" cy="294.4" r="2.5" fill="#D9A441" stroke="#D9A441" stroke-width="0" opacity="0.71"/><circle cx="103.4" cy="295.7" r="2.5" fill="#D9A441" stroke="#D9A441" stroke-width="0" opacity="0.71"/><circle cx="104.9" cy="299.1" r="2.5" fill="#D9A441" stroke="#D9A441" stroke-width="0" opacity="0.71"/><circle cx="106.4" cy="300.3" r="2.5" fill="#D9A441" stroke="#D9A441" stroke-width="0" opacity="0.71"/><circle cx="107.9" cy="297.7" r="2.5" fill="#D9A441" stroke="#D9A441" stroke-width="0" opacity="0.71"/><circle cx="109.4" cy="298.7" r="2.5" fill="#D9A441" stroke="#D9A441" stroke-width="0" opacity="0.70"/><circle cx="110.8" cy="295.2" r="2.5" fill="#D9A441" stroke="#D9A441" stroke-width="0" opacity="0.70"/><circle cx="112.3" cy="308.2" r="2.5" fill="#D9A441" stroke="#D9A441" stroke-width="0" opacity="0.70"/><circle cx="113.7" cy="298.5" r="2.5" fill="#D9A441" stroke="#D9A441" stroke-width="0" opacity="0.70"/><circle cx="115.2" cy="295.0" r="2.5" fill="#D9A441" stroke="#D9A441" stroke-width="0" opacity="0.70"/><circle cx="116.6" cy="295.7" r="2.5" fill="#D9A441" stroke="#D9A441" stroke-width="0" opacity="0.70"/><circle cx="118.0" cy="304.3" r="2.5" fill="#D9A441" stroke="#D9A441" stroke-width="0" opacity="0.70"/><circle cx="119.4" cy="291.3" r="2.5" fill="#D9A441" stroke="#D9A441" stroke-width="0" opacity="0.70"/><circle cx="120.9" cy="303.7" r="2.5" fill="#D9A441" stroke="#D9A441" stroke-width="0" opacity="0.70"/><circle cx="122.3" cy="296.0" r="2.5" fill="#D9A441" stroke="#D9A441" stroke-width="0" opacity="0.69"/><circle cx="123.7" cy="295.7" r="2.5" fill="#D9A441" stroke="#D9A441" stroke-width="0" opacity="0.69"/><circle cx="125.1" cy="302.4" r="2.5" fill="#D9A441" stroke="#D9A441" stroke-width="0" opacity="0.69"/><circle cx="126.5" cy="299.1" r="2.5" fill="#D9A441" stroke="#D9A441" stroke-width="0" opacity="0.69"/><circle cx="127.9" cy="304.7" r="2.5" fill="#D9A441" stroke="#D9A441" stroke-width="0" opacity="0.69"/><circle cx="129.2" cy="297.8" r="2.5" fill="#D9A441" stroke="#D9A441" stroke-width="0" opacity="0.69"/><circle cx="130.6" cy="295.6" r="2.5" fill="#D9A441" stroke="#D9A441" stroke-width="0" opacity="0.69"/><circle cx="132.0" cy="305.4" r="2.5" fill="#D9A441" stroke="#D9A441" stroke-width="0" opacity="0.69"/><circle cx="133.4" cy="298.2" r="2.5" fill="#D9A441" stroke="#D9A441" stroke-width="0" opacity="0.68"/><circle cx="134.7" cy="295.1" r="2.5" fill="#D9A441" stroke="#D9A441" stroke-width="0" opacity="0.68"/><circle cx="136.1" cy="302.8" r="2.5" fill="#D9A441" stroke="#D9A441" stroke-width="0" opacity="0.68"/><circle cx="137.5" cy="301.5" r="2.4" fill="#D9A441" stroke="#D9A441" stroke-width="0" opacity="0.68"/><circle cx="138.8" cy="309.2" r="2.4" fill="#D9A441" stroke="#D9A441" stroke-width="0" opacity="0.68"/><circle cx="140.2" cy="306.9" r="2.4" fill="#D9A441" stroke="#D9A441" stroke-width="0" opacity="0.68"/><circle cx="141.5" cy="295.9" r="2.4" fill="#D9A441" stroke="#D9A441" stroke-width="0" opacity="0.68"/><circle cx="142.9" cy="305.2" r="2.4" fill="#D9A441" stroke="#D9A441" stroke-width="0" opacity="0.68"/><circle cx="144.2" cy="297.9" r="2.4" fill="#D9A441" stroke="#D9A441" stroke-width="0" opacity="0.68"/><circle cx="145.5" cy="289.7" r="2.4" fill="#D9A441" stroke="#D9A441" stroke-width="0" opacity="0.67"/><circle cx="146.9" cy="300.2" r="2.4" fill="#D9A441" stroke="#D9A441" stroke-width="0" opacity="0.67"/><circle cx="148.2" cy="306.8" r="2.4" fill="#D9A441" stroke="#D9A441" stroke-width="0" opacity="0.67"/><circle cx="149.5" cy="301.5" r="2.4" fill="#D9A441" stroke="#D9A441" stroke-width="0" opacity="0.67"/><circle cx="150.9" cy="308.4" r="2.4" fill="#D9A441" stroke="#D9A441" stroke-width="0" opacity="0.67"/><circle cx="152.2" cy="311.2" r="2.4" fill="#D9A441" stroke="#D9A441" stroke-width="0" opacity="0.67"/><circle cx="153.5" cy="299.6" r="2.4" fill="#D9A441" stroke="#D9A441" stroke-width="0" opacity="0.67"/><circle cx="154.8" cy="301.9" r="2.4" fill="#D9A441" stroke="#D9A441" stroke-width="0" opacity="0.67"/><circle cx="156.1" cy="294.2" r="2.4" fill="#D9A441" stroke="#D9A441" stroke-width="0" opacity="0.67"/><circle cx="157.4" cy="296.8" r="2.4" fill="#D9A441" stroke="#D9A441" stroke-width="0" opacity="0.66"/><circle cx="158.7" cy="304.7" r="2.4" fill="#D9A441" stroke="#D9A441" stroke-width="0" opacity="0.66"/><circle cx="160.0" cy="304.5" r="2.4" fill="#D9A441" stroke="#D9A441" stroke-width="0" opacity="0.66"/><circle cx="161.3" cy="297.0" r="2.4" fill="#D9A441" stroke="#D9A441" stroke-width="0" opacity="0.66"/><circle cx="162.6" cy="290.4" r="2.4" fill="#D9A441" stroke="#D9A441" stroke-width="0" opacity="0.66"/><circle cx="163.9" cy="294.7" r="2.4" fill="#D9A441" stroke="#D9A441" stroke-width="0" opacity="0.66"/><circle cx="165.2" cy="297.3" r="2.4" fill="#D9A441" stroke="#D9A441" stroke-width="0" opacity="0.66"/><circle cx="166.5" cy="305.1" r="2.4" fill="#D9A441" stroke="#D9A441" stroke-width="0" opacity="0.66"/><circle cx="167.8" cy="314.2" r="2.4" fill="#D9A441" stroke="#D9A441" stroke-width="0" opacity="0.66"/><circle cx="169.1" cy="303.1" r="2.4" fill="#D9A441" stroke="#D9A441" stroke-width="0" opacity="0.65"/><circle cx="170.3" cy="310.8" r="2.4" fill="#D9A441" stroke="#D9A441" stroke-width="0" opacity="0.65"/><circle cx="171.6" cy="307.1" r="2.4" fill="#D9A441" stroke="#D9A441" stroke-width="0" opacity="0.65"/><circle cx="172.9" cy="289.2" r="2.4" fill="#D9A441" stroke="#D9A441" stroke-width="0" opacity="0.65"/><circle cx="174.2" cy="304.4" r="2.4" fill="#D9A441" stroke="#D9A441" stroke-width="0" opacity="0.65"/><circle cx="175.4" cy="299.1" r="2.4" fill="#D9A441" stroke="#D9A441" stroke-width="0" opacity="0.65"/><circle cx="176.7" cy="302.3" r="2.4" fill="#D9A441" stroke="#D9A441" stroke-width="0" opacity="0.65"/><circle cx="178.0" cy="301.0" r="2.4" fill="#D9A441" stroke="#D9A441" stroke-width="0" opacity="0.65"/><circle cx="179.2" cy="299.1" r="2.4" fill="#D9A441" stroke="#D9A441" stroke-width="0" opacity="0.65"/><circle cx="180.5" cy="298.7" r="2.4" fill="#D9A441" stroke="#D9A441" stroke-width="0" opacity="0.64"/><circle cx="181.8" cy="282.8" r="2.4" fill="#D9A441" stroke="#D9A441" stroke-width="0" opacity="0.64"/><circle cx="183.0" cy="300.7" r="2.4" fill="#D9A441" stroke="#D9A441" stroke-width="0" opacity="0.64"/><circle cx="184.3" cy="322.7" r="2.4" fill="#D9A441" stroke="#D9A441" stroke-width="0" opacity="0.64"/><circle cx="185.5" cy="319.9" r="2.4" fill="#D9A441" stroke="#D9A441" stroke-width="0" opacity="0.64"/><circle cx="186.8" cy="296.7" r="2.4" fill="#D9A441" stroke="#D9A441" stroke-width="0" opacity="0.64"/><circle cx="188.0" cy="294.1" r="2.4" fill="#D9A441" stroke="#D9A441" stroke-width="0" opacity="0.64"/><circle cx="189.3" cy="308.0" r="2.4" fill="#D9A441" stroke="#D9A441" stroke-width="0" opacity="0.64"/><circle cx="190.5" cy="294.9" r="2.4" fill="#D9A441" stroke="#D9A441" stroke-width="0" opacity="0.64"/><circle cx="191.8" cy="287.6" r="2.3" fill="#D9A441" stroke="#D9A441" stroke-width="0" opacity="0.64"/><circle cx="193.0" cy="309.4" r="2.3" fill="#D9A441" stroke="#D9A441" stroke-width="0" opacity="0.63"/><circle cx="194.2" cy="298.4" r="2.3" fill="#D9A441" stroke="#D9A441" stroke-width="0" opacity="0.63"/><circle cx="195.5" cy="295.9" r="2.3" fill="#D9A441" stroke="#D9A441" stroke-width="0" opacity="0.63"/><circle cx="196.7" cy="329.3" r="2.3" fill="#D9A441" stroke="#D9A441" stroke-width="0" opacity="0.63"/><circle cx="197.9" cy="313.2" r="2.3" fill="#D9A441" stroke="#D9A441" stroke-width="0" opacity="0.63"/><circle cx="199.2" cy="314.8" r="2.3" fill="#D9A441" stroke="#D9A441" stroke-width="0" opacity="0.63"/><circle cx="200.4" cy="272.6" r="2.3" fill="#D9A441" stroke="#D9A441" stroke-width="0" opacity="0.63"/><circle cx="201.6" cy="306.6" r="2.3" fill="#D9A441" stroke="#D9A441" stroke-width="0" opacity="0.63"/><circle cx="202.8" cy="302.0" r="2.3" fill="#D9A441" stroke="#D9A441" stroke-width="0" opacity="0.63"/><circle cx="204.1" cy="324.0" r="2.3" fill="#D9A441" stroke="#D9A441" stroke-width="0" opacity="0.62"/><circle cx="205.3" cy="307.1" r="2.3" fill="#D9A441" stroke="#D9A441" stroke-width="0" opacity="0.62"/><circle cx="206.5" cy="263.7" r="2.3" fill="#D9A441" stroke="#D9A441" stroke-width="0" opacity="0.62"/><circle cx="207.7" cy="289.0" r="2.3" fill="#D9A441" stroke="#D9A441" stroke-width="0" opacity="0.62"/><circle cx="208.9" cy="298.7" r="2.3" fill="#D9A441" stroke="#D9A441" stroke-width="0" opacity="0.62"/><circle cx="210.2" cy="307.6" r="2.3" fill="#D9A441" stroke="#D9A441" stroke-width="0" opacity="0.62"/><circle cx="211.4" cy="284.5" r="2.3" fill="#D9A441" stroke="#D9A441" stroke-width="0" opacity="0.62"/><circle cx="212.6" cy="275.5" r="2.3" fill="#D9A441" stroke="#D9A441" stroke-width="0" opacity="0.62"/><circle cx="213.8" cy="282.9" r="2.3" fill="#D9A441" stroke="#D9A441" stroke-width="0" opacity="0.62"/><circle cx="215.0" cy="300.1" r="2.3" fill="#D9A441" stroke="#D9A441" stroke-width="0" opacity="0.62"/><circle cx="216.2" cy="293.6" r="2.3" fill="#D9A441" stroke="#D9A441" stroke-width="0" opacity="0.61"/><circle cx="217.4" cy="292.8" r="2.3" fill="#D9A441" stroke="#D9A441" stroke-width="0" opacity="0.61"/><circle cx="218.6" cy="305.2" r="2.3" fill="#D9A441" stroke="#D9A441" stroke-width="0" opacity="0.61"/><circle cx="219.8" cy="275.0" r="2.3" fill="#D9A441" stroke="#D9A441" stroke-width="0" opacity="0.61"/><circle cx="221.0" cy="303.3" r="2.3" fill="#D9A441" stroke="#D9A441" stroke-width="0" opacity="0.61"/><circle cx="222.2" cy="297.7" r="2.3" fill="#D9A441" stroke="#D9A441" stroke-width="0" opacity="0.61"/><circle cx="223.4" cy="304.9" r="2.3" fill="#D9A441" stroke="#D9A441" stroke-width="0" opacity="0.61"/><circle cx="224.6" cy="309.2" r="2.3" fill="#D9A441" stroke="#D9A441" stroke-width="0" opacity="0.61"/><circle cx="225.8" cy="293.4" r="2.3" fill="#D9A441" stroke="#D9A441" stroke-width="0" opacity="0.61"/><circle cx="227.0" cy="330.1" r="2.3" fill="#D9A441" stroke="#D9A441" stroke-width="0" opacity="0.61"/><circle cx="228.2" cy="297.3" r="2.3" fill="#D9A441" stroke="#D9A441" stroke-width="0" opacity="0.60"/><circle cx="229.4" cy="332.7" r="2.3" fill="#D9A441" stroke="#D9A441" stroke-width="0" opacity="0.60"/><circle cx="230.5" cy="323.9" r="2.3" fill="#D9A441" stroke="#D9A441" stroke-width="0" opacity="0.60"/><circle cx="231.7" cy="330.8" r="2.3" fill="#D9A441" stroke="#D9A441" stroke-width="0" opacity="0.60"/><circle cx="232.9" cy="318.7" r="2.3" fill="#D9A441" stroke="#D9A441" stroke-width="0" opacity="0.60"/><circle cx="234.1" cy="302.9" r="2.3" fill="#D9A441" stroke="#D9A441" stroke-width="0" opacity="0.60"/><circle cx="235.3" cy="311.2" r="2.3" fill="#D9A441" stroke="#D9A441" stroke-width="0" opacity="0.60"/><circle cx="236.5" cy="299.1" r="2.3" fill="#D9A441" stroke="#D9A441" stroke-width="0" opacity="0.60"/><circle cx="237.6" cy="291.0" r="2.3" fill="#D9A441" stroke="#D9A441" stroke-width="0" opacity="0.60"/><circle cx="238.8" cy="279.3" r="2.3" fill="#D9A441" stroke="#D9A441" stroke-width="0" opacity="0.60"/><circle cx="240.0" cy="307.8" r="2.3" fill="#D9A441" stroke="#D9A441" stroke-width="0" opacity="0.59"/><circle cx="241.2" cy="293.8" r="2.3" fill="#D9A441" stroke="#D9A441" stroke-width="0" opacity="0.59"/><circle cx="242.3" cy="276.6" r="2.3" fill="#D9A441" stroke="#D9A441" stroke-width="0" opacity="0.59"/><circle cx="243.5" cy="321.8" r="2.3" fill="#D9A441" stroke="#D9A441" stroke-width="0" opacity="0.59"/><circle cx="244.7" cy="301.1" r="2.3" fill="#D9A441" stroke="#D9A441" stroke-width="0" opacity="0.59"/><circle cx="245.9" cy="304.2" r="2.2" fill="#D9A441" stroke="#D9A441" stroke-width="0" opacity="0.59"/><circle cx="247.0" cy="322.4" r="2.2" fill="#D9A441" stroke="#D9A441" stroke-width="0" opacity="0.59"/><circle cx="248.2" cy="296.2" r="2.2" fill="#D9A441" stroke="#D9A441" stroke-width="0" opacity="0.59"/><circle cx="249.4" cy="297.0" r="2.2" fill="#D9A441" stroke="#D9A441" stroke-width="0" opacity="0.59"/><circle cx="250.5" cy="272.8" r="2.2" fill="#D9A441" stroke="#D9A441" stroke-width="0" opacity="0.59"/><circle cx="251.7" cy="303.0" r="2.2" fill="#4FA89B" stroke="#4FA89B" stroke-width="0" opacity="0.58"/><circle cx="252.9" cy="332.5" r="2.2" fill="#4FA89B" stroke="#4FA89B" stroke-width="0" opacity="0.58"/><circle cx="254.0" cy="318.8" r="2.2" fill="#4FA89B" stroke="#4FA89B" stroke-width="0" opacity="0.58"/><circle cx="255.2" cy="323.6" r="2.2" fill="#4FA89B" stroke="#4FA89B" stroke-width="0" opacity="0.58"/><circle cx="256.3" cy="325.4" r="2.2" fill="#4FA89B" stroke="#4FA89B" stroke-width="0" opacity="0.58"/><circle cx="257.5" cy="272.3" r="2.2" fill="#4FA89B" stroke="#4FA89B" stroke-width="0" opacity="0.58"/><circle cx="258.6" cy="297.5" r="2.2" fill="#4FA89B" stroke="#4FA89B" stroke-width="0" opacity="0.58"/><circle cx="259.8" cy="293.8" r="2.2" fill="#4FA89B" stroke="#4FA89B" stroke-width="0" opacity="0.58"/><circle cx="261.0" cy="286.8" r="2.2" fill="#4FA89B" stroke="#4FA89B" stroke-width="0" opacity="0.58"/><circle cx="262.1" cy="326.0" r="2.2" fill="#4FA89B" stroke="#4FA89B" stroke-width="0" opacity="0.58"/><circle cx="263.3" cy="357.5" r="2.2" fill="#4FA89B" stroke="#4FA89B" stroke-width="0" opacity="0.57"/><circle cx="264.4" cy="296.4" r="2.2" fill="#4FA89B" stroke="#4FA89B" stroke-width="0" opacity="0.57"/><circle cx="265.6" cy="313.5" r="2.2" fill="#4FA89B" stroke="#4FA89B" stroke-width="0" opacity="0.57"/><circle cx="266.7" cy="348.7" r="2.2" fill="#4FA89B" stroke="#4FA89B" stroke-width="0" opacity="0.57"/><circle cx="267.9" cy="311.3" r="2.2" fill="#4FA89B" stroke="#4FA89B" stroke-width="0" opacity="0.57"/><circle cx="269.0" cy="303.8" r="2.2" fill="#4FA89B" stroke="#4FA89B" stroke-width="0" opacity="0.57"/><circle cx="270.2" cy="338.2" r="2.2" fill="#4FA89B" stroke="#4FA89B" stroke-width="0" opacity="0.57"/><circle cx="271.3" cy="302.7" r="2.2" fill="#4FA89B" stroke="#4FA89B" stroke-width="0" opacity="0.57"/><circle cx="272.4" cy="310.3" r="2.2" fill="#4FA89B" stroke="#4FA89B" stroke-width="0" opacity="0.57"/><circle cx="273.6" cy="284.0" r="2.2" fill="#4FA89B" stroke="#4FA89B" stroke-width="0" opacity="0.57"/><circle cx="274.7" cy="313.2" r="2.2" fill="#4FA89B" stroke="#4FA89B" stroke-width="0" opacity="0.57"/><circle cx="275.9" cy="279.5" r="2.2" fill="#4FA89B" stroke="#4FA89B" stroke-width="0" opacity="0.56"/><circle cx="277.0" cy="311.2" r="2.2" fill="#4FA89B" stroke="#4FA89B" stroke-width="0" opacity="0.56"/><circle cx="278.1" cy="294.7" r="2.2" fill="#4FA89B" stroke="#4FA89B" stroke-width="0" opacity="0.56"/><circle cx="279.3" cy="274.4" r="2.2" fill="#4FA89B" stroke="#4FA89B" stroke-width="0" opacity="0.56"/><circle cx="280.4" cy="243.4" r="2.2" fill="#4FA89B" stroke="#4FA89B" stroke-width="0" opacity="0.56"/><circle cx="281.5" cy="327.6" r="2.2" fill="#4FA89B" stroke="#4FA89B" stroke-width="0" opacity="0.56"/><circle cx="282.7" cy="309.0" r="2.2" fill="#4FA89B" stroke="#4FA89B" stroke-width="0" opacity="0.56"/><circle cx="283.8" cy="297.5" r="2.2" fill="#4FA89B" stroke="#4FA89B" stroke-width="0" opacity="0.56"/><circle cx="284.9" cy="267.2" r="2.2" fill="#4FA89B" stroke="#4FA89B" stroke-width="0" opacity="0.56"/><circle cx="286.1" cy="375.8" r="2.2" fill="#4FA89B" stroke="#4FA89B" stroke-width="0" opacity="0.56"/><circle cx="287.2" cy="315.6" r="2.2" fill="#4FA89B" stroke="#4FA89B" stroke-width="0" opacity="0.55"/><circle cx="288.3" cy="271.2" r="2.2" fill="#4FA89B" stroke="#4FA89B" stroke-width="0" opacity="0.55"/><circle cx="289.5" cy="293.6" r="2.2" fill="#4FA89B" stroke="#4FA89B" stroke-width="0" opacity="0.55"/><circle cx="290.6" cy="339.5" r="2.2" fill="#4FA89B" stroke="#4FA89B" stroke-width="0" opacity="0.55"/><circle cx="291.7" cy="279.1" r="2.2" fill="#4FA89B" stroke="#4FA89B" stroke-width="0" opacity="0.55"/><circle cx="292.8" cy="283.0" r="2.2" fill="#4FA89B" stroke="#4FA89B" stroke-width="0" opacity="0.55"/><circle cx="294.0" cy="365.4" r="2.2" fill="#4FA89B" stroke="#4FA89B" stroke-width="0" opacity="0.55"/><circle cx="295.1" cy="329.6" r="2.2" fill="#4FA89B" stroke="#4FA89B" stroke-width="0" opacity="0.55"/><circle cx="296.2" cy="289.2" r="2.2" fill="#4FA89B" stroke="#4FA89B" stroke-width="0" opacity="0.55"/><circle cx="297.3" cy="266.5" r="2.2" fill="#4FA89B" stroke="#4FA89B" stroke-width="0" opacity="0.55"/><circle cx="298.5" cy="322.2" r="2.2" fill="#4FA89B" stroke="#4FA89B" stroke-width="0" opacity="0.55"/><circle cx="299.6" cy="345.9" r="2.2" fill="#4FA89B" stroke="#4FA89B" stroke-width="0" opacity="0.54"/><circle cx="300.7" cy="287.9" r="2.1" fill="#4FA89B" stroke="#4FA89B" stroke-width="0" opacity="0.54"/><circle cx="301.8" cy="315.0" r="2.1" fill="#4FA89B" stroke="#4FA89B" stroke-width="0" opacity="0.54"/><circle cx="302.9" cy="289.3" r="2.1" fill="#4FA89B" stroke="#4FA89B" stroke-width="0" opacity="0.54"/><circle cx="304.0" cy="350.0" r="2.1" fill="#4FA89B" stroke="#4FA89B" stroke-width="0" opacity="0.54"/><circle cx="305.2" cy="294.8" r="2.1" fill="#4FA89B" stroke="#4FA89B" stroke-width="0" opacity="0.54"/><circle cx="306.3" cy="246.8" r="2.1" fill="#4FA89B" stroke="#4FA89B" stroke-width="0" opacity="0.54"/><circle cx="307.4" cy="305.4" r="2.1" fill="#4FA89B" stroke="#4FA89B" stroke-width="0" opacity="0.54"/><circle cx="308.5" cy="244.8" r="2.1" fill="#4FA89B" stroke="#4FA89B" stroke-width="0" opacity="0.54"/><circle cx="309.6" cy="355.7" r="2.1" fill="#4FA89B" stroke="#4FA89B" stroke-width="0" opacity="0.54"/><circle cx="310.7" cy="265.7" r="2.1" fill="#4FA89B" stroke="#4FA89B" stroke-width="0" opacity="0.53"/><circle cx="311.8" cy="288.4" r="2.1" fill="#4FA89B" stroke="#4FA89B" stroke-width="0" opacity="0.53"/><circle cx="312.9" cy="342.1" r="2.1" fill="#4FA89B" stroke="#4FA89B" stroke-width="0" opacity="0.53"/><circle cx="314.0" cy="330.0" r="2.1" fill="#4FA89B" stroke="#4FA89B" stroke-width="0" opacity="0.53"/><circle cx="315.2" cy="235.1" r="2.1" fill="#4FA89B" stroke="#4FA89B" stroke-width="0" opacity="0.53"/><circle cx="316.3" cy="285.4" r="2.1" fill="#4FA89B" stroke="#4FA89B" stroke-width="0" opacity="0.53"/><circle cx="317.4" cy="313.7" r="2.1" fill="#4FA89B" stroke="#4FA89B" stroke-width="0" opacity="0.53"/><circle cx="318.5" cy="263.4" r="2.1" fill="#4FA89B" stroke="#4FA89B" stroke-width="0" opacity="0.53"/><circle cx="319.6" cy="241.0" r="2.1" fill="#4FA89B" stroke="#4FA89B" stroke-width="0" opacity="0.53"/><circle cx="320.7" cy="330.3" r="2.1" fill="#4FA89B" stroke="#4FA89B" stroke-width="0" opacity="0.53"/><circle cx="321.8" cy="347.9" r="2.1" fill="#4FA89B" stroke="#4FA89B" stroke-width="0" opacity="0.53"/><circle cx="322.9" cy="285.9" r="2.1" fill="#4FA89B" stroke="#4FA89B" stroke-width="0" opacity="0.52"/><circle cx="324.0" cy="323.7" r="2.1" fill="#4FA89B" stroke="#4FA89B" stroke-width="0" opacity="0.52"/><circle cx="325.1" cy="272.2" r="2.1" fill="#4FA89B" stroke="#4FA89B" stroke-width="0" opacity="0.52"/><circle cx="326.2" cy="349.5" r="2.1" fill="#4FA89B" stroke="#4FA89B" stroke-width="0" opacity="0.52"/><circle cx="327.3" cy="251.4" r="2.1" fill="#4FA89B" stroke="#4FA89B" stroke-width="0" opacity="0.52"/><circle cx="328.4" cy="266.5" r="2.1" fill="#4FA89B" stroke="#4FA89B" stroke-width="0" opacity="0.52"/><circle cx="329.5" cy="263.1" r="2.1" fill="#4FA89B" stroke="#4FA89B" stroke-width="0" opacity="0.52"/><circle cx="330.6" cy="279.6" r="2.1" fill="#4FA89B" stroke="#4FA89B" stroke-width="0" opacity="0.52"/><circle cx="331.7" cy="235.5" r="2.1" fill="#4FA89B" stroke="#4FA89B" stroke-width="0" opacity="0.52"/><circle cx="332.8" cy="303.0" r="2.1" fill="#4FA89B" stroke="#4FA89B" stroke-width="0" opacity="0.52"/><circle cx="333.9" cy="298.5" r="2.1" fill="#4FA89B" stroke="#4FA89B" stroke-width="0" opacity="0.52"/><circle cx="335.0" cy="336.1" r="2.1" fill="#4FA89B" stroke="#4FA89B" stroke-width="0" opacity="0.51"/><circle cx="336.0" cy="304.4" r="2.1" fill="#4FA89B" stroke="#4FA89B" stroke-width="0" opacity="0.51"/><circle cx="337.1" cy="307.0" r="2.1" fill="#4FA89B" stroke="#4FA89B" stroke-width="0" opacity="0.51"/><circle cx="338.2" cy="384.8" r="2.1" fill="#4FA89B" stroke="#4FA89B" stroke-width="0" opacity="0.51"/><circle cx="339.3" cy="295.2" r="2.1" fill="#4FA89B" stroke="#4FA89B" stroke-width="0" opacity="0.51"/><circle cx="340.4" cy="219.8" r="2.1" fill="#4FA89B" stroke="#4FA89B" stroke-width="0" opacity="0.51"/><circle cx="341.5" cy="330.5" r="2.1" fill="#4FA89B" stroke="#4FA89B" stroke-width="0" opacity="0.51"/><circle cx="342.6" cy="381.2" r="2.1" fill="#4FA89B" stroke="#4FA89B" stroke-width="0" opacity="0.51"/><circle cx="343.7" cy="308.4" r="2.1" fill="#4FA89B" stroke="#4FA89B" stroke-width="0" opacity="0.51"/><circle cx="344.8" cy="310.2" r="2.1" fill="#4FA89B" stroke="#4FA89B" stroke-width="0" opacity="0.51"/><circle cx="345.8" cy="373.2" r="2.1" fill="#4FA89B" stroke="#4FA89B" stroke-width="0" opacity="0.51"/><circle cx="346.9" cy="372.6" r="2.1" fill="#4FA89B" stroke="#4FA89B" stroke-width="0" opacity="0.50"/><circle cx="348.0" cy="232.4" r="2.1" fill="#4FA89B" stroke="#4FA89B" stroke-width="0" opacity="0.50"/><circle cx="349.1" cy="397.7" r="2.1" fill="#4FA89B" stroke="#4FA89B" stroke-width="0" opacity="0.50"/><circle cx="350.2" cy="296.6" r="2.1" fill="#4FA89B" stroke="#4FA89B" stroke-width="0" opacity="0.50"/><circle cx="351.3" cy="290.8" r="2.1" fill="#4FA89B" stroke="#4FA89B" stroke-width="0" opacity="0.50"/><circle cx="352.3" cy="302.4" r="2.1" fill="#4FA89B" stroke="#4FA89B" stroke-width="0" opacity="0.50"/><circle cx="353.4" cy="297.6" r="2.1" fill="#4FA89B" stroke="#4FA89B" stroke-width="0" opacity="0.50"/><circle cx="354.5" cy="295.9" r="2.0" fill="#4FA89B" stroke="#4FA89B" stroke-width="0" opacity="0.50"/><circle cx="355.6" cy="266.1" r="2.0" fill="#4FA89B" stroke="#4FA89B" stroke-width="0" opacity="0.50"/><circle cx="356.7" cy="381.0" r="2.0" fill="#4FA89B" stroke="#4FA89B" stroke-width="0" opacity="0.50"/><circle cx="357.7" cy="302.5" r="2.0" fill="#4FA89B" stroke="#4FA89B" stroke-width="0" opacity="0.49"/><circle cx="358.8" cy="343.3" r="2.0" fill="#4FA89B" stroke="#4FA89B" stroke-width="0" opacity="0.49"/><circle cx="359.9" cy="269.5" r="2.0" fill="#4FA89B" stroke="#4FA89B" stroke-width="0" opacity="0.49"/><circle cx="361.0" cy="222.5" r="2.0" fill="#4FA89B" stroke="#4FA89B" stroke-width="0" opacity="0.49"/><circle cx="362.0" cy="387.0" r="2.0" fill="#4FA89B" stroke="#4FA89B" stroke-width="0" opacity="0.49"/><circle cx="363.1" cy="300.1" r="2.0" fill="#4FA89B" stroke="#4FA89B" stroke-width="0" opacity="0.49"/><circle cx="364.2" cy="325.2" r="2.0" fill="#4FA89B" stroke="#4FA89B" stroke-width="0" opacity="0.49"/><circle cx="365.3" cy="294.4" r="2.0" fill="#4FA89B" stroke="#4FA89B" stroke-width="0" opacity="0.49"/><circle cx="366.3" cy="302.4" r="2.0" fill="#4FA89B" stroke="#4FA89B" stroke-width="0" opacity="0.49"/><circle cx="367.4" cy="372.3" r="2.0" fill="#4FA89B" stroke="#4FA89B" stroke-width="0" opacity="0.49"/><circle cx="368.5" cy="364.9" r="2.0" fill="#4FA89B" stroke="#4FA89B" stroke-width="0" opacity="0.49"/><circle cx="369.6" cy="189.0" r="2.0" fill="#4FA89B" stroke="#4FA89B" stroke-width="0" opacity="0.48"/><circle cx="370.6" cy="418.9" r="2.0" fill="#4FA89B" stroke="#4FA89B" stroke-width="0" opacity="0.48"/><circle cx="371.7" cy="342.3" r="2.0" fill="#4FA89B" stroke="#4FA89B" stroke-width="0" opacity="0.48"/><circle cx="372.8" cy="312.0" r="2.0" fill="#4FA89B" stroke="#4FA89B" stroke-width="0" opacity="0.48"/><circle cx="373.8" cy="282.1" r="2.0" fill="#4FA89B" stroke="#4FA89B" stroke-width="0" opacity="0.48"/><circle cx="374.9" cy="266.2" r="2.0" fill="#4FA89B" stroke="#4FA89B" stroke-width="0" opacity="0.48"/><circle cx="376.0" cy="387.9" r="2.0" fill="#4FA89B" stroke="#4FA89B" stroke-width="0" opacity="0.48"/><circle cx="377.0" cy="340.9" r="2.0" fill="#4FA89B" stroke="#4FA89B" stroke-width="0" opacity="0.48"/><circle cx="378.1" cy="375.9" r="2.0" fill="#4FA89B" stroke="#4FA89B" stroke-width="0" opacity="0.48"/><circle cx="379.2" cy="284.5" r="2.0" fill="#4FA89B" stroke="#4FA89B" stroke-width="0" opacity="0.48"/><circle cx="380.2" cy="330.0" r="2.0" fill="#4FA89B" stroke="#4FA89B" stroke-width="0" opacity="0.48"/><circle cx="381.3" cy="313.6" r="2.0" fill="#4FA89B" stroke="#4FA89B" stroke-width="0" opacity="0.48"/><circle cx="382.3" cy="273.5" r="2.0" fill="#4FA89B" stroke="#4FA89B" stroke-width="0" opacity="0.47"/><circle cx="383.4" cy="320.1" r="2.0" fill="#4FA89B" stroke="#4FA89B" stroke-width="0" opacity="0.47"/><circle cx="384.5" cy="294.1" r="2.0" fill="#4FA89B" stroke="#4FA89B" stroke-width="0" opacity="0.47"/><circle cx="385.5" cy="371.1" r="2.0" fill="#4FA89B" stroke="#4FA89B" stroke-width="0" opacity="0.47"/><circle cx="386.6" cy="285.3" r="2.0" fill="#4FA89B" stroke="#4FA89B" stroke-width="0" opacity="0.47"/><circle cx="387.7" cy="216.8" r="2.0" fill="#4FA89B" stroke="#4FA89B" stroke-width="0" opacity="0.47"/><circle cx="388.7" cy="182.7" r="2.0" fill="#4FA89B" stroke="#4FA89B" stroke-width="0" opacity="0.47"/><circle cx="389.8" cy="331.1" r="2.0" fill="#4FA89B" stroke="#4FA89B" stroke-width="0" opacity="0.47"/><circle cx="390.8" cy="228.7" r="2.0" fill="#4FA89B" stroke="#4FA89B" stroke-width="0" opacity="0.47"/><circle cx="391.9" cy="307.5" r="2.0" fill="#4FA89B" stroke="#4FA89B" stroke-width="0" opacity="0.47"/><circle cx="392.9" cy="245.6" r="2.0" fill="#4FA89B" stroke="#4FA89B" stroke-width="0" opacity="0.47"/><circle cx="394.0" cy="242.6" r="2.0" fill="#4FA89B" stroke="#4FA89B" stroke-width="0" opacity="0.46"/><circle cx="395.1" cy="435.3" r="2.0" fill="#4FA89B" stroke="#4FA89B" stroke-width="0" opacity="0.46"/><circle cx="396.1" cy="365.9" r="2.0" fill="#4FA89B" stroke="#4FA89B" stroke-width="0" opacity="0.46"/><circle cx="397.2" cy="248.8" r="2.0" fill="#4FA89B" stroke="#4FA89B" stroke-width="0" opacity="0.46"/><circle cx="398.2" cy="257.0" r="2.0" fill="#4FA89B" stroke="#4FA89B" stroke-width="0" opacity="0.46"/><circle cx="399.3" cy="281.8" r="2.0" fill="#4FA89B" stroke="#4FA89B" stroke-width="0" opacity="0.46"/><circle cx="400.3" cy="315.5" r="2.0" fill="#4FA89B" stroke="#4FA89B" stroke-width="0" opacity="0.46"/><circle cx="401.4" cy="279.0" r="2.0" fill="#4FA89B" stroke="#4FA89B" stroke-width="0" opacity="0.46"/><circle cx="402.4" cy="437.2" r="2.0" fill="#4FA89B" stroke="#4FA89B" stroke-width="0" opacity="0.46"/><circle cx="403.5" cy="222.9" r="2.0" fill="#4FA89B" stroke="#4FA89B" stroke-width="0" opacity="0.46"/><circle cx="404.5" cy="283.2" r="2.0" fill="#4FA89B" stroke="#4FA89B" stroke-width="0" opacity="0.46"/><circle cx="405.6" cy="441.5" r="2.0" fill="#4FA89B" stroke="#4FA89B" stroke-width="0" opacity="0.45"/><circle cx="406.6" cy="342.6" r="2.0" fill="#4FA89B" stroke="#4FA89B" stroke-width="0" opacity="0.45"/><circle cx="407.7" cy="332.3" r="2.0" fill="#4FA89B" stroke="#4FA89B" stroke-width="0" opacity="0.45"/><circle cx="408.7" cy="311.6" r="1.9" fill="#4FA89B" stroke="#4FA89B" stroke-width="0" opacity="0.45"/><circle cx="409.8" cy="241.2" r="1.9" fill="#4FA89B" stroke="#4FA89B" stroke-width="0" opacity="0.45"/><circle cx="410.8" cy="320.4" r="1.9" fill="#4FA89B" stroke="#4FA89B" stroke-width="0" opacity="0.45"/><circle cx="411.9" cy="293.7" r="1.9" fill="#4FA89B" stroke="#4FA89B" stroke-width="0" opacity="0.45"/><circle cx="412.9" cy="344.2" r="1.9" fill="#4FA89B" stroke="#4FA89B" stroke-width="0" opacity="0.45"/><circle cx="414.0" cy="320.3" r="1.9" fill="#4FA89B" stroke="#4FA89B" stroke-width="0" opacity="0.45"/><circle cx="415.0" cy="349.2" r="1.9" fill="#4FA89B" stroke="#4FA89B" stroke-width="0" opacity="0.45"/><circle cx="416.1" cy="367.3" r="1.9" fill="#4FA89B" stroke="#4FA89B" stroke-width="0" opacity="0.45"/><circle cx="417.1" cy="320.0" r="1.9" fill="#4FA89B" stroke="#4FA89B" stroke-width="0" opacity="0.44"/><circle cx="418.1" cy="312.9" r="1.9" fill="#4FA89B" stroke="#4FA89B" stroke-width="0" opacity="0.44"/><circle cx="419.2" cy="197.8" r="1.9" fill="#4FA89B" stroke="#4FA89B" stroke-width="0" opacity="0.44"/><circle cx="420.2" cy="308.8" r="1.9" fill="#4FA89B" stroke="#4FA89B" stroke-width="0" opacity="0.44"/><circle cx="421.3" cy="210.1" r="1.9" fill="#4FA89B" stroke="#4FA89B" stroke-width="0" opacity="0.44"/><circle cx="422.3" cy="319.8" r="1.9" fill="#4FA89B" stroke="#4FA89B" stroke-width="0" opacity="0.44"/><circle cx="423.4" cy="270.5" r="1.9" fill="#4FA89B" stroke="#4FA89B" stroke-width="0" opacity="0.44"/><circle cx="424.4" cy="162.4" r="1.9" fill="#4FA89B" stroke="#4FA89B" stroke-width="0" opacity="0.44"/><circle cx="425.4" cy="403.3" r="1.9" fill="#4FA89B" stroke="#4FA89B" stroke-width="0" opacity="0.44"/><circle cx="426.5" cy="328.3" r="1.9" fill="#4FA89B" stroke="#4FA89B" stroke-width="0" opacity="0.44"/><circle cx="427.5" cy="300.8" r="1.9" fill="#4FA89B" stroke="#4FA89B" stroke-width="0" opacity="0.44"/><circle cx="428.6" cy="107.1" r="1.9" fill="#4FA89B" stroke="#4FA89B" stroke-width="0" opacity="0.44"/><circle cx="429.6" cy="294.0" r="1.9" fill="#4FA89B" stroke="#4FA89B" stroke-width="0" opacity="0.43"/><circle cx="430.6" cy="279.3" r="1.9" fill="#4FA89B" stroke="#4FA89B" stroke-width="0" opacity="0.43"/><circle cx="431.7" cy="400.4" r="1.9" fill="#4FA89B" stroke="#4FA89B" stroke-width="0" opacity="0.43"/><circle cx="432.7" cy="301.3" r="1.9" fill="#4FA89B" stroke="#4FA89B" stroke-width="0" opacity="0.43"/><circle cx="433.7" cy="427.6" r="1.9" fill="#4FA89B" stroke="#4FA89B" stroke-width="0" opacity="0.43"/><circle cx="434.8" cy="259.1" r="1.9" fill="#4FA89B" stroke="#4FA89B" stroke-width="0" opacity="0.43"/><circle cx="435.8" cy="206.5" r="1.9" fill="#4FA89B" stroke="#4FA89B" stroke-width="0" opacity="0.43"/><circle cx="436.8" cy="354.2" r="1.9" fill="#4FA89B" stroke="#4FA89B" stroke-width="0" opacity="0.43"/><circle cx="437.9" cy="386.9" r="1.9" fill="#4FA89B" stroke="#4FA89B" stroke-width="0" opacity="0.43"/><circle cx="438.9" cy="277.0" r="1.9" fill="#4FA89B" stroke="#4FA89B" stroke-width="0" opacity="0.43"/><circle cx="439.9" cy="282.1" r="1.9" fill="#4FA89B" stroke="#4FA89B" stroke-width="0" opacity="0.43"/><circle cx="441.0" cy="384.8" r="1.9" fill="#4FA89B" stroke="#4FA89B" stroke-width="0" opacity="0.42"/><circle cx="442.0" cy="246.5" r="1.9" fill="#4FA89B" stroke="#4FA89B" stroke-width="0" opacity="0.42"/><circle cx="443.0" cy="137.8" r="1.9" fill="#4FA89B" stroke="#4FA89B" stroke-width="0" opacity="0.42"/><circle cx="444.1" cy="240.4" r="1.9" fill="#4FA89B" stroke="#4FA89B" stroke-width="0" opacity="0.42"/><circle cx="445.1" cy="329.7" r="1.9" fill="#4FA89B" stroke="#4FA89B" stroke-width="0" opacity="0.42"/><circle cx="446.1" cy="159.3" r="1.9" fill="#4FA89B" stroke="#4FA89B" stroke-width="0" opacity="0.42"/><circle cx="447.2" cy="316.2" r="1.9" fill="#4FA89B" stroke="#4FA89B" stroke-width="0" opacity="0.42"/><circle cx="448.2" cy="277.8" r="1.9" fill="#4FA89B" stroke="#4FA89B" stroke-width="0" opacity="0.42"/><circle cx="449.2" cy="326.2" r="1.9" fill="#4FA89B" stroke="#4FA89B" stroke-width="0" opacity="0.42"/><circle cx="450.3" cy="337.8" r="1.9" fill="#4FA89B" stroke="#4FA89B" stroke-width="0" opacity="0.42"/><circle cx="451.3" cy="182.5" r="1.9" fill="#4FA89B" stroke="#4FA89B" stroke-width="0" opacity="0.42"/><circle cx="452.3" cy="265.5" r="1.9" fill="#4FA89B" stroke="#4FA89B" stroke-width="0" opacity="0.42"/><circle cx="453.3" cy="322.2" r="1.9" fill="#4FA89B" stroke="#4FA89B" stroke-width="0" opacity="0.41"/><circle cx="454.4" cy="396.2" r="1.9" fill="#4FA89B" stroke="#4FA89B" stroke-width="0" opacity="0.41"/><circle cx="455.4" cy="173.1" r="1.9" fill="#4FA89B" stroke="#4FA89B" stroke-width="0" opacity="0.41"/><circle cx="456.4" cy="209.7" r="1.9" fill="#4FA89B" stroke="#4FA89B" stroke-width="0" opacity="0.41"/><circle cx="457.4" cy="383.2" r="1.9" fill="#4FA89B" stroke="#4FA89B" stroke-width="0" opacity="0.41"/><circle cx="458.5" cy="325.4" r="1.9" fill="#4FA89B" stroke="#4FA89B" stroke-width="0" opacity="0.41"/><circle cx="459.5" cy="280.7" r="1.9" fill="#4FA89B" stroke="#4FA89B" stroke-width="0" opacity="0.41"/><circle cx="460.5" cy="241.9" r="1.9" fill="#4FA89B" stroke="#4FA89B" stroke-width="0" opacity="0.41"/><circle cx="461.5" cy="425.6" r="1.9" fill="#4FA89B" stroke="#4FA89B" stroke-width="0" opacity="0.41"/><circle cx="462.6" cy="366.6" r="1.9" fill="#4FA89B" stroke="#4FA89B" stroke-width="0" opacity="0.41"/><circle cx="463.6" cy="311.6" r="1.8" fill="#4FA89B" stroke="#4FA89B" stroke-width="0" opacity="0.41"/><circle cx="464.6" cy="286.8" r="1.8" fill="#4FA89B" stroke="#4FA89B" stroke-width="0" opacity="0.40"/><circle cx="465.6" cy="340.9" r="1.8" fill="#4FA89B" stroke="#4FA89B" stroke-width="0" opacity="0.40"/><circle cx="466.6" cy="365.7" r="1.8" fill="#4FA89B" stroke="#4FA89B" stroke-width="0" opacity="0.40"/><circle cx="467.7" cy="366.6" r="1.8" fill="#4FA89B" stroke="#4FA89B" stroke-width="0" opacity="0.40"/><circle cx="468.7" cy="300.3" r="1.8" fill="#4FA89B" stroke="#4FA89B" stroke-width="0" opacity="0.40"/><circle cx="469.7" cy="288.2" r="1.8" fill="#4FA89B" stroke="#4FA89B" stroke-width="0" opacity="0.40"/><circle cx="470.7" cy="333.3" r="1.8" fill="#4FA89B" stroke="#4FA89B" stroke-width="0" opacity="0.40"/><circle cx="471.7" cy="292.1" r="1.8" fill="#4FA89B" stroke="#4FA89B" stroke-width="0" opacity="0.40"/><circle cx="472.8" cy="92.0" r="1.8" fill="#4FA89B" stroke="#4FA89B" stroke-width="0" opacity="0.40"/><circle cx="473.8" cy="323.1" r="1.8" fill="#4FA89B" stroke="#4FA89B" stroke-width="0" opacity="0.40"/><circle cx="474.8" cy="260.5" r="1.8" fill="#4FA89B" stroke="#4FA89B" stroke-width="0" opacity="0.40"/><circle cx="475.8" cy="418.2" r="1.8" fill="#4FA89B" stroke="#4FA89B" stroke-width="0" opacity="0.40"/><circle cx="476.8" cy="215.5" r="1.8" fill="#4FA89B" stroke="#4FA89B" stroke-width="0" opacity="0.39"/><circle cx="477.8" cy="259.1" r="1.8" fill="#4FA89B" stroke="#4FA89B" stroke-width="0" opacity="0.39"/><circle cx="478.9" cy="337.8" r="1.8" fill="#4FA89B" stroke="#4FA89B" stroke-width="0" opacity="0.39"/><circle cx="479.9" cy="209.2" r="1.8" fill="#4FA89B" stroke="#4FA89B" stroke-width="0" opacity="0.39"/><circle cx="480.9" cy="224.8" r="1.8" fill="#4FA89B" stroke="#4FA89B" stroke-width="0" opacity="0.39"/><circle cx="481.9" cy="232.5" r="1.8" fill="#4FA89B" stroke="#4FA89B" stroke-width="0" opacity="0.39"/><circle cx="482.9" cy="353.8" r="1.8" fill="#4FA89B" stroke="#4FA89B" stroke-width="0" opacity="0.39"/><circle cx="483.9" cy="346.1" r="1.8" fill="#4FA89B" stroke="#4FA89B" stroke-width="0" opacity="0.39"/><circle cx="484.9" cy="171.7" r="1.8" fill="#4FA89B" stroke="#4FA89B" stroke-width="0" opacity="0.39"/><circle cx="486.0" cy="428.7" r="1.8" fill="#4FA89B" stroke="#4FA89B" stroke-width="0" opacity="0.39"/><circle cx="487.0" cy="266.8" r="1.8" fill="#4FA89B" stroke="#4FA89B" stroke-width="0" opacity="0.39"/><circle cx="488.0" cy="231.2" r="1.8" fill="#4FA89B" stroke="#4FA89B" stroke-width="0" opacity="0.38"/><circle cx="489.0" cy="399.6" r="1.8" fill="#4FA89B" stroke="#4FA89B" stroke-width="0" opacity="0.38"/><circle cx="490.0" cy="218.0" r="1.8" fill="#4FA89B" stroke="#4FA89B" stroke-width="0" opacity="0.38"/><circle cx="491.0" cy="407.5" r="1.8" fill="#4FA89B" stroke="#4FA89B" stroke-width="0" opacity="0.38"/><circle cx="492.0" cy="511.6" r="1.8" fill="#4FA89B" stroke="#4FA89B" stroke-width="0" opacity="0.38"/><circle cx="493.0" cy="278.2" r="1.8" fill="#4FA89B" stroke="#4FA89B" stroke-width="0" opacity="0.38"/><circle cx="494.0" cy="270.6" r="1.8" fill="#4FA89B" stroke="#4FA89B" stroke-width="0" opacity="0.38"/><circle cx="495.0" cy="114.8" r="1.8" fill="#4FA89B" stroke="#4FA89B" stroke-width="0" opacity="0.38"/><circle cx="496.1" cy="233.2" r="1.8" fill="#4FA89B" stroke="#4FA89B" stroke-width="0" opacity="0.38"/><circle cx="497.1" cy="264.7" r="1.8" fill="#4FA89B" stroke="#4FA89B" stroke-width="0" opacity="0.38"/><circle cx="498.1" cy="406.6" r="1.8" fill="#4FA89B" stroke="#4FA89B" stroke-width="0" opacity="0.38"/><circle cx="499.1" cy="371.3" r="1.8" fill="#4FA89B" stroke="#4FA89B" stroke-width="0" opacity="0.38"/><circle cx="500.1" cy="324.5" r="1.8" fill="#4FA89B" stroke="#4FA89B" stroke-width="0" opacity="0.37"/><circle cx="501.1" cy="325.2" r="1.8" fill="#4FA89B" stroke="#4FA89B" stroke-width="0" opacity="0.37"/><circle cx="502.1" cy="414.8" r="1.8" fill="#4FA89B" stroke="#4FA89B" stroke-width="0" opacity="0.37"/><circle cx="503.1" cy="375.5" r="1.8" fill="#4FA89B" stroke="#4FA89B" stroke-width="0" opacity="0.37"/><circle cx="504.1" cy="265.1" r="1.8" fill="#4FA89B" stroke="#4FA89B" stroke-width="0" opacity="0.37"/><circle cx="505.1" cy="318.5" r="1.8" fill="#4FA89B" stroke="#4FA89B" stroke-width="0" opacity="0.37"/><circle cx="506.1" cy="274.6" r="1.8" fill="#4FA89B" stroke="#4FA89B" stroke-width="0" opacity="0.37"/><circle cx="507.1" cy="136.0" r="1.8" fill="#4FA89B" stroke="#4FA89B" stroke-width="0" opacity="0.37"/><circle cx="508.1" cy="352.1" r="1.8" fill="#4FA89B" stroke="#4FA89B" stroke-width="0" opacity="0.37"/><circle cx="509.1" cy="265.5" r="1.8" fill="#4FA89B" stroke="#4FA89B" stroke-width="0" opacity="0.37"/><circle cx="510.1" cy="416.8" r="1.8" fill="#4FA89B" stroke="#4FA89B" stroke-width="0" opacity="0.37"/><circle cx="511.1" cy="313.8" r="1.8" fill="#4FA89B" stroke="#4FA89B" stroke-width="0" opacity="0.37"/><circle cx="512.1" cy="301.9" r="1.8" fill="#4FA89B" stroke="#4FA89B" stroke-width="0" opacity="0.36"/><circle cx="513.1" cy="362.2" r="1.8" fill="#4FA89B" stroke="#4FA89B" stroke-width="0" opacity="0.36"/><circle cx="514.1" cy="175.2" r="1.8" fill="#4FA89B" stroke="#4FA89B" stroke-width="0" opacity="0.36"/><circle cx="515.1" cy="274.7" r="1.8" fill="#4FA89B" stroke="#4FA89B" stroke-width="0" opacity="0.36"/><circle cx="516.1" cy="354.7" r="1.8" fill="#4FA89B" stroke="#4FA89B" stroke-width="0" opacity="0.36"/><circle cx="517.1" cy="355.8" r="1.7" fill="#4FA89B" stroke="#4FA89B" stroke-width="0" opacity="0.36"/><circle cx="518.1" cy="307.4" r="1.7" fill="#4FA89B" stroke="#4FA89B" stroke-width="0" opacity="0.36"/><circle cx="519.1" cy="149.7" r="1.7" fill="#4FA89B" stroke="#4FA89B" stroke-width="0" opacity="0.36"/><circle cx="520.1" cy="318.4" r="1.7" fill="#4FA89B" stroke="#4FA89B" stroke-width="0" opacity="0.36"/><circle cx="521.1" cy="425.9" r="1.7" fill="#4FA89B" stroke="#4FA89B" stroke-width="0" opacity="0.36"/><circle cx="522.1" cy="354.9" r="1.7" fill="#4FA89B" stroke="#4FA89B" stroke-width="0" opacity="0.36"/><circle cx="523.1" cy="392.7" r="1.7" fill="#4FA89B" stroke="#4FA89B" stroke-width="0" opacity="0.36"/><circle cx="524.1" cy="61.0" r="1.7" fill="#4FA89B" stroke="#4FA89B" stroke-width="0" opacity="0.35"/><circle cx="525.1" cy="189.2" r="1.7" fill="#4FA89B" stroke="#4FA89B" stroke-width="0" opacity="0.35"/><circle cx="526.1" cy="467.6" r="1.7" fill="#4FA89B" stroke="#4FA89B" stroke-width="0" opacity="0.35"/><circle cx="527.1" cy="356.2" r="1.7" fill="#4FA89B" stroke="#4FA89B" stroke-width="0" opacity="0.35"/><circle cx="528.1" cy="69.6" r="1.7" fill="#4FA89B" stroke="#4FA89B" stroke-width="0" opacity="0.35"/><circle cx="529.1" cy="507.8" r="1.7" fill="#4FA89B" stroke="#4FA89B" stroke-width="0" opacity="0.35"/><circle cx="530.1" cy="177.7" r="1.7" fill="#4FA89B" stroke="#4FA89B" stroke-width="0" opacity="0.35"/><circle cx="531.1" cy="449.6" r="1.7" fill="#4FA89B" stroke="#4FA89B" stroke-width="0" opacity="0.35"/><circle cx="532.1" cy="116.7" r="1.7" fill="#4FA89B" stroke="#4FA89B" stroke-width="0" opacity="0.35"/><circle cx="533.1" cy="346.9" r="1.7" fill="#4FA89B" stroke="#4FA89B" stroke-width="0" opacity="0.35"/><circle cx="534.1" cy="545.0" r="1.7" fill="#4FA89B" stroke="#4FA89B" stroke-width="0" opacity="0.35"/><circle cx="535.1" cy="114.0" r="1.7" fill="#4FA89B" stroke="#4FA89B" stroke-width="0" opacity="0.35"/><circle cx="536.1" cy="322.7" r="1.7" fill="#4FA89B" stroke="#4FA89B" stroke-width="0" opacity="0.34"/><circle cx="537.1" cy="427.5" r="1.7" fill="#4FA89B" stroke="#4FA89B" stroke-width="0" opacity="0.34"/><circle cx="538.1" cy="379.3" r="1.7" fill="#4FA89B" stroke="#4FA89B" stroke-width="0" opacity="0.34"/><circle cx="539.0" cy="194.9" r="1.7" fill="#4FA89B" stroke="#4FA89B" stroke-width="0" opacity="0.34"/><circle cx="540.0" cy="288.4" r="1.7" fill="#4FA89B" stroke="#4FA89B" stroke-width="0" opacity="0.34"/><circle cx="541.0" cy="329.6" r="1.7" fill="#4FA89B" stroke="#4FA89B" stroke-width="0" opacity="0.34"/><circle cx="542.0" cy="262.1" r="1.7" fill="#4FA89B" stroke="#4FA89B" stroke-width="0" opacity="0.34"/><circle cx="543.0" cy="351.8" r="1.7" fill="#4FA89B" stroke="#4FA89B" stroke-width="0" opacity="0.34"/><circle cx="544.0" cy="187.6" r="1.7" fill="#4FA89B" stroke="#4FA89B" stroke-width="0" opacity="0.34"/><line x1="48.0" y1="300.0" x2="552.0" y2="300.0" stroke="#EDE6D6" stroke-width="0.8" opacity="0.20"/><path d="M 484 284.0 L 528 300.0 L 484 316.0" fill="none" stroke="#EDE6D6" stroke-width="1.6" opacity="0.65" stroke-linecap="round"/></svg>